<?xml version="1.0" encoding="utf-8"?>
<!-- Generator: Adobe Illustrator 16.0.0, SVG Export Plug-In . SVG Version: 6.00 Build 0)  -->
<!DOCTYPE svg PUBLIC "-//W3C//DTD SVG 1.1//EN" "http://www.w3.org/Graphics/SVG/1.1/DTD/svg11.dtd">
<svg version="1.1" id="Ebene_1" xmlns="http://www.w3.org/2000/svg" xmlns:xlink="http://www.w3.org/1999/xlink" x="0px" y="0px"
	 width="595.28px" height="841.89px" viewBox="0 0 595.28 841.89" enable-background="new 0 0 595.28 841.89" xml:space="preserve">
<g>
	<rect x="192.401" y="624.945" width="209.982" height="32.055"/>
	<g>
		<g>
			<path d="M297.393,320.331c34.17,0,57.716,6.228,69.983,18.511c13.317,13.335,13.289,34.297,13.263,54.569l-0.002,2.428
				c-0.005,19.714-18.4,109.235-32.496,172.711H246.645c-14.093-63.475-32.487-152.994-32.496-172.71l-0.002-2.43
				c-0.026-20.271-0.054-41.233,13.263-54.568C239.677,326.559,263.223,320.331,297.393,320.331 M297.393,302.331
				c-103.453,0-101.251,54.001-101.243,93.513c0.014,30.932,36.079,190.707,36.079,190.707h130.328
				c0,0,36.072-159.774,36.08-190.707C398.645,356.332,400.846,302.331,297.393,302.331L297.393,302.331z"/>
		</g>
		<g>
			<path d="M338.546,385.621c0.191,0.187,0.391,0.428,0.618,0.738c3.125,4.266,11.955,24.576-5.599,106.806
				c-0.734,3.44-1.488,6.86-2.254,10.243c-0.217-4.63-0.41-9.319-0.573-14.034C328.094,412.758,335.612,391.075,338.546,385.621
				 M336.595,370.997c-36.358,0-13.074,215.553-13.074,215.553S391.762,370.997,336.595,370.997L336.595,370.997z"/>
		</g>
		<g>
			<path d="M256.239,385.621c2.933,5.454,10.452,27.137,7.807,103.753c-0.163,4.715-0.356,9.405-0.573,14.035
				c-0.752-3.32-1.492-6.676-2.213-10.053c-17.607-82.384-8.768-102.725-5.64-106.997
				C255.847,386.049,256.046,385.808,256.239,385.621 M258.189,370.997c-55.167,0,13.074,215.553,13.074,215.553
				S294.548,370.997,258.189,370.997L258.189,370.997z"/>
		</g>
		<path fill="none" stroke="#000000" stroke-width="14" stroke-miterlimit="10" d="M279.353,265.625v-11.509h-19.675v-36.08h19.675
			v-26.507h36.079v26.507h19.683v36.08h-19.683v11.509c13.909,12.922,21.723,36.706,21.723,36.706h-79.522
			C257.632,302.331,265.443,278.547,279.353,265.625z"/>
	</g>
	<polygon points="384.27,613.53 210.517,613.53 231.808,597.965 362.969,597.965 	"/>
</g>
</svg>
