<?xml version="1.0" encoding="utf-8"?>
<!-- Generator: Adobe Illustrator 16.0.0, SVG Export Plug-In . SVG Version: 6.00 Build 0)  -->
<!DOCTYPE svg PUBLIC "-//W3C//DTD SVG 1.1//EN" "http://www.w3.org/Graphics/SVG/1.1/DTD/svg11.dtd">
<svg version="1.1" id="Ebene_1" xmlns="http://www.w3.org/2000/svg" xmlns:xlink="http://www.w3.org/1999/xlink" x="0px" y="0px"
	 width="595.28px" height="841.89px" viewBox="0 0 595.28 841.89" enable-background="new 0 0 595.28 841.89" xml:space="preserve">
<g>
	<g>
		<path fill="#FFFFFF" d="M297.264,244.15c29.567,0,39.362,6.166,42.2,8.817c1.476,1.378,1.901,2.508,2.023,4.041
			c-1.625,3.704-6.993,12.211-12.057,19.017l-4.726,6.342l1.476,7.771c0.185,0.973,18.51,97.527,20.894,114.243
			c0.389,2.731,1.064,7.203,1.921,12.863c2.229,14.746,5.598,37.03,8.295,57.487c3.56,26.991,4.09,36.951,4.108,40.398
			c-0.349,0.438-0.883,0.869-1.993,1.767c-1.32,1.067-2.963,2.396-4.768,4.195c-0.437,0.437-0.921,0.904-1.436,1.401
			c-5.905,5.71-15.788,15.269-15.788,29.058c0,0.326,0.007,0.652,0.021,0.979h-80.331c0.014-0.327,0.021-0.653,0.021-0.979
			c0-13.787-9.885-23.342-15.791-29.051c-0.517-0.5-1.004-0.97-1.456-1.422c-1.791-1.786-3.434-3.114-4.754-4.182
			c-1.111-0.897-1.645-1.329-1.994-1.767c0.02-3.447,0.549-13.403,4.105-40.376c2.697-20.447,6.065-42.731,8.294-57.478
			c0.858-5.676,1.535-10.159,1.924-12.884c2.395-16.722,20.711-113.282,20.896-114.255l1.469-7.768l-4.716-6.338
			c-5.067-6.811-10.436-15.319-12.06-19.022c0.121-1.532,0.547-2.663,2.023-4.041C257.903,250.316,267.696,244.15,297.264,244.15
			 M297.264,226.15c-62.27,0-62.27,25.57-62.27,32.59c0,7.01,15.67,28.04,15.67,28.04s-18.55,97.74-21.03,115.06
			c-2.47,17.33-17.32,110.12-14.02,118.37c3.3,8.25,7.42,9.49,11.55,13.61c4.12,4.119,11.96,10.72,11.96,17.729
			c0,7.021-10.73,18.979-10.73,18.979h137.74c0,0-10.72-11.959-10.72-18.979c0-7.01,7.83-13.61,11.95-17.729
			c4.13-4.12,8.25-5.36,11.55-13.61s-11.55-101.04-14.021-118.37c-2.47-17.32-21.029-115.06-21.029-115.06s15.67-21.03,15.67-28.04
			C359.534,251.72,359.534,226.15,297.264,226.15L297.264,226.15z"/>
	</g>
	<rect x="192.272" y="581.945" fill="#FFFFFF" width="209.983" height="32.055"/>
</g>
</svg>
