<?xml version="1.0" encoding="utf-8"?>
<!-- Generator: Adobe Illustrator 16.0.0, SVG Export Plug-In . SVG Version: 6.00 Build 0)  -->
<!DOCTYPE svg PUBLIC "-//W3C//DTD SVG 1.1//EN" "http://www.w3.org/Graphics/SVG/1.1/DTD/svg11.dtd">
<svg version="1.1" id="Ebene_1" xmlns="http://www.w3.org/2000/svg" xmlns:xlink="http://www.w3.org/1999/xlink" x="0px" y="0px"
	 width="595.28px" height="841.89px" viewBox="0 0 595.28 841.89" enable-background="new 0 0 595.28 841.89" xml:space="preserve">
<g>
	<rect x="192.468" y="581.945" width="209.982" height="32.055"/>
	<g>
		<path d="M278.31,249.27l76.145,19.28l48.973,12.395l5.479,232.712c-11.217,3.552-29.93,8.735-53.369,12.444l-7.772,1.229
			l-4.375,6.539c-3.835,5.731-5.779,11.68-5.779,17.68c0,0.326,0.007,0.652,0.021,0.979H257.3c0.014-0.327,0.021-0.653,0.021-0.979
			c0-5.726-1.788-11.426-5.313-16.943l-4.57-7.15l-8.424-1.024c-25.427-3.093-43.356-6.614-51.576-8.907
			c-0.384-1.937-0.753-4.284-1.06-6.735c9.554-10.002,29.651-31.195,49.264-52.856c59.345-65.542,59.56-73.527,54.389-85.34
			c-5.905-13.49-21.754-13.49-28.522-13.49c-17.539,0-47.478,4.723-66.786,8.128c-0.498-5.339-0.872-12.003-0.872-19.98
			c0-14.554,2.744-24.185,4.939-29.561l55.1-10.869l9.899-1.95l14.521-2.861v-14.8V249.27 M260.31,226.15v61.06l-9.899,1.95
			l-63.37,12.5c0,0-11.19,14.2-11.19,45.59c0,27.41,4.07,41.04,4.07,41.04s56.209-11.188,81.587-11.188
			c6.65,0,11.184,0.769,12.033,2.708C278,390,167.71,504.25,167.71,504.25s1.021,19.05,5.09,26.18
			c2.431,4.25,31.98,9.971,64.04,13.87c1.47,2.3,2.48,4.75,2.48,7.25c0,7.021-10.73,18.979-10.73,18.979h137.74
			c0,0-10.72-11.959-10.72-18.979c0-2.649,1.12-5.25,2.739-7.67c41.65-6.59,68.86-17.521,68.86-17.521L421.1,266.85L358.87,251.1
			l-89.57-22.68L260.31,226.15L260.31,226.15z"/>
	</g>
</g>
</svg>
