<?xml version="1.0" encoding="utf-8"?>
<!-- Generator: Adobe Illustrator 16.0.0, SVG Export Plug-In . SVG Version: 6.00 Build 0)  -->
<!DOCTYPE svg PUBLIC "-//W3C//DTD SVG 1.1//EN" "http://www.w3.org/Graphics/SVG/1.1/DTD/svg11.dtd">
<svg version="1.1" id="Ebene_1" xmlns="http://www.w3.org/2000/svg" xmlns:xlink="http://www.w3.org/1999/xlink" x="0px" y="0px"
	 width="595.28px" height="841.89px" viewBox="0 0 595.28 841.89" enable-background="new 0 0 595.28 841.89" xml:space="preserve">
<g>
	<rect x="192.185" y="615.945" fill="#FFFFFF" width="209.982" height="32.055"/>
	<g>
		<g>
			<path fill="#FFFFFF" d="M298.31,206.328c12.469,0,22.613,10.144,22.613,22.613c0,8.688-4.852,16.471-12.657,20.311
				c-3.11,1.528-6.46,2.303-9.956,2.303c-3.497,0-6.847-0.775-9.95-2.299c-7.811-3.844-12.664-11.627-12.664-20.314
				C275.696,216.472,285.841,206.328,298.31,206.328 M298.31,192.328c-20.221,0-36.613,16.394-36.613,36.613
				c0,14.434,8.354,26.907,20.482,32.875c4.868,2.392,10.339,3.738,16.131,3.738c5.791,0,11.263-1.346,16.13-3.738
				c12.135-5.968,20.483-18.442,20.483-32.875C334.923,208.721,318.53,192.328,298.31,192.328L298.31,192.328z"/>
		</g>
		<g>
			<path fill="#FFFFFF" d="M297.878,296.434c0.145,0.001,0.289,0.001,0.434,0.001c0.144,0,0.287,0,0.431-0.001l12.619,113.796
				l7.296,65.785l27.025-60.419l37.648-84.165L345.935,559.55h-95.249l-37.396-228.12l37.646,84.166l27.026,60.422l7.295-65.788
				L297.878,296.434 M282.179,274.693l-14.811,133.554l-54.653-122.188c-5.789,3.833-12.725,6.072-20.188,6.072
				c-1.336,0-2.654-0.077-3.955-0.217l46.824,285.637h125.827l46.88-285.968c-2.043,0.354-4.139,0.548-6.282,0.548
				c-6.714,0-12.999-1.815-18.407-4.969l-54.162,121.085l-14.811-133.553c-4.867,2.394-10.341,3.742-16.13,3.742
				C292.52,278.436,287.047,277.087,282.179,274.693L282.179,274.693z"/>
		</g>
		<g>
			<path fill="#FFFFFF" d="M401.822,220.024c12.469,0,22.613,10.145,22.613,22.614c0,11.028-7.873,20.395-18.702,22.269
				c-1.331,0.229-2.647,0.344-3.911,0.344c-3.993,0-7.92-1.06-11.362-3.068c-6.939-4.043-11.251-11.532-11.251-19.545
				C379.209,230.168,389.354,220.024,401.822,220.024 M401.822,206.024c-20.22,0-36.613,16.393-36.613,36.614
				c0,13.506,7.316,25.299,18.203,31.642c5.41,3.156,11.695,4.971,18.41,4.971c2.141,0,4.238-0.196,6.28-0.546
				c17.228-2.981,30.333-17.992,30.333-36.066C438.436,222.417,422.043,206.024,401.822,206.024L401.822,206.024z"/>
		</g>
		<g>
			<path fill="#FFFFFF" d="M192.527,220.024c12.469,0,22.613,10.145,22.613,22.614c0,7.605-3.796,14.66-10.149,18.868
				c-3.703,2.45-8.013,3.745-12.464,3.745c-0.787,0-1.617-0.046-2.458-0.136c-11.49-1.236-20.154-10.898-20.154-22.477
				C169.915,230.168,180.059,220.024,192.527,220.024 M192.527,206.024c-20.22,0-36.612,16.393-36.612,36.614
				c0,18.884,14.299,34.422,32.657,36.396c1.301,0.139,2.62,0.216,3.955,0.216c7.462,0,14.398-2.238,20.189-6.069
				c9.896-6.554,16.424-17.786,16.424-30.543C229.141,222.417,212.748,206.024,192.527,206.024L192.527,206.024z"/>
		</g>
	</g>
	<polygon fill="#FFFFFF" points="384.053,604.53 210.3,604.53 231.591,588.965 362.752,588.965 	"/>
</g>
</svg>
