<?xml version="1.0" encoding="utf-8"?>
<!-- Generator: Adobe Illustrator 16.0.0, SVG Export Plug-In . SVG Version: 6.00 Build 0)  -->
<!DOCTYPE svg PUBLIC "-//W3C//DTD SVG 1.1//EN" "http://www.w3.org/Graphics/SVG/1.1/DTD/svg11.dtd">
<svg version="1.1" id="Ebene_1" xmlns="http://www.w3.org/2000/svg" xmlns:xlink="http://www.w3.org/1999/xlink" x="0px" y="0px"
	 width="595.28px" height="841.89px" viewBox="0 0 595.28 841.89" enable-background="new 0 0 595.28 841.89" xml:space="preserve">
<g>
	<rect x="176.716" y="559.945" fill="#FFFFFF" width="242.105" height="32.055"/>
	<g>
		<path fill="#FFFFFF" d="M297.769,266.148c31.332,0,56.822,25.491,56.822,56.823c0,17.069-7.654,33.113-20.707,43.87h-72.231
			c-13.051-10.757-20.707-26.802-20.707-43.87C240.946,291.639,266.437,266.148,297.769,266.148 M297.769,248.148
			c-41.323,0-74.822,33.5-74.822,74.823c0,25.717,12.976,48.401,32.735,61.87h84.173c19.761-13.468,32.736-36.152,32.736-61.87
			C372.591,281.648,339.092,248.148,297.769,248.148L297.769,248.148z"/>
	</g>
	<g>
		<path fill="#FFFFFF" d="M335.735,410.256l17.088,11.015H242.714l17.088-11.015H335.735 M339.856,396.256h-84.176l-60.526,39.015
			h205.228L339.856,396.256L339.856,396.256z"/>
	</g>
	<g>
		<path fill="#FFFFFF" d="M335.25,464.686c1.345,15.855,5.142,38.299,15.666,53.276c3.129,4.452,6.921,8.744,11.062,12.804H233.559
			c4.141-4.06,7.933-8.352,11.062-12.805c10.524-14.977,14.321-37.42,15.666-53.275H335.25 M352.55,446.686H242.987
			c0,0,0.802,41.152-13.094,60.927c-15.365,21.864-53.178,41.153-53.178,41.153h242.105c0,0-37.813-19.289-53.178-41.153
			C351.747,487.838,352.55,446.686,352.55,446.686L352.55,446.686z"/>
	</g>
</g>
</svg>
